<mxfile host="app.diagrams.net" agent="Mozilla/5.0 (Macintosh; Intel Mac OS X 10.15; rv:144.0) Gecko/20100101 Firefox/144.0" version="28.2.7">
  <diagram name="Seite-1" id="Mf4pJQINIsVvI6grORsi">
    <mxGraphModel dx="1426" dy="768" grid="1" gridSize="10" guides="1" tooltips="1" connect="1" arrows="1" fold="1" page="1" pageScale="1" pageWidth="827" pageHeight="1169" math="0" shadow="0">
      <root>
        <mxCell id="0" />
        <mxCell id="1" parent="0" />
        <mxCell id="8mdRNxYV0NPmIafyGJd7-36" value="BrainfuckMachine" style="swimlane;fontStyle=1;align=center;verticalAlign=top;childLayout=stackLayout;horizontal=1;startSize=28.266666666666666;horizontalStack=0;resizeParent=1;resizeParentMax=0;resizeLast=0;collapsible=0;marginBottom=0;" vertex="1" parent="1">
          <mxGeometry x="20" y="20" width="452" height="428.26666666666665" as="geometry" />
        </mxCell>
        <mxCell id="8mdRNxYV0NPmIafyGJd7-37" value="-programCounter: int" style="text;strokeColor=none;fillColor=none;align=left;verticalAlign=top;spacingLeft=4;spacingRight=4;overflow=hidden;rotatable=0;points=[[0,0.5],[1,0.5]];portConstraint=eastwest;" vertex="1" parent="8mdRNxYV0NPmIafyGJd7-36">
          <mxGeometry y="28.266666666666666" width="452" height="28" as="geometry" />
        </mxCell>
        <mxCell id="8mdRNxYV0NPmIafyGJd7-38" value="-band: Band" style="text;strokeColor=none;fillColor=none;align=left;verticalAlign=top;spacingLeft=4;spacingRight=4;overflow=hidden;rotatable=0;points=[[0,0.5],[1,0.5]];portConstraint=eastwest;" vertex="1" parent="8mdRNxYV0NPmIafyGJd7-36">
          <mxGeometry y="56.266666666666666" width="452" height="28" as="geometry" />
        </mxCell>
        <mxCell id="8mdRNxYV0NPmIafyGJd7-39" value="-closingBracesSet: map" style="text;strokeColor=none;fillColor=none;align=left;verticalAlign=top;spacingLeft=4;spacingRight=4;overflow=hidden;rotatable=0;points=[[0,0.5],[1,0.5]];portConstraint=eastwest;" vertex="1" parent="8mdRNxYV0NPmIafyGJd7-36">
          <mxGeometry y="84.26666666666667" width="452" height="28" as="geometry" />
        </mxCell>
        <mxCell id="8mdRNxYV0NPmIafyGJd7-40" value="-openingBracesSet: map" style="text;strokeColor=none;fillColor=none;align=left;verticalAlign=top;spacingLeft=4;spacingRight=4;overflow=hidden;rotatable=0;points=[[0,0.5],[1,0.5]];portConstraint=eastwest;" vertex="1" parent="8mdRNxYV0NPmIafyGJd7-36">
          <mxGeometry y="112.26666666666667" width="452" height="28" as="geometry" />
        </mxCell>
        <mxCell id="8mdRNxYV0NPmIafyGJd7-41" value="-loopIndexStack: vector" style="text;strokeColor=none;fillColor=none;align=left;verticalAlign=top;spacingLeft=4;spacingRight=4;overflow=hidden;rotatable=0;points=[[0,0.5],[1,0.5]];portConstraint=eastwest;" vertex="1" parent="8mdRNxYV0NPmIafyGJd7-36">
          <mxGeometry y="140.26666666666665" width="452" height="28" as="geometry" />
        </mxCell>
        <mxCell id="8mdRNxYV0NPmIafyGJd7-42" style="line;strokeWidth=1;fillColor=none;align=left;verticalAlign=middle;spacingTop=-1;spacingLeft=3;spacingRight=3;rotatable=0;labelPosition=right;points=[];portConstraint=eastwest;strokeColor=inherit;" vertex="1" parent="8mdRNxYV0NPmIafyGJd7-36">
          <mxGeometry y="168.26666666666665" width="452" height="8" as="geometry" />
        </mxCell>
        <mxCell id="8mdRNxYV0NPmIafyGJd7-43" value="+BrainfuckMachine()" style="text;strokeColor=none;fillColor=none;align=left;verticalAlign=top;spacingLeft=4;spacingRight=4;overflow=hidden;rotatable=0;points=[[0,0.5],[1,0.5]];portConstraint=eastwest;" vertex="1" parent="8mdRNxYV0NPmIafyGJd7-36">
          <mxGeometry y="176.26666666666665" width="452" height="28" as="geometry" />
        </mxCell>
        <mxCell id="8mdRNxYV0NPmIafyGJd7-44" value="+~BrainfuckMachine()" style="text;strokeColor=none;fillColor=none;align=left;verticalAlign=top;spacingLeft=4;spacingRight=4;overflow=hidden;rotatable=0;points=[[0,0.5],[1,0.5]];portConstraint=eastwest;" vertex="1" parent="8mdRNxYV0NPmIafyGJd7-36">
          <mxGeometry y="204.26666666666665" width="452" height="28" as="geometry" />
        </mxCell>
        <mxCell id="8mdRNxYV0NPmIafyGJd7-45" value="+execute(programCode: string)" style="text;strokeColor=none;fillColor=none;align=left;verticalAlign=top;spacingLeft=4;spacingRight=4;overflow=hidden;rotatable=0;points=[[0,0.5],[1,0.5]];portConstraint=eastwest;" vertex="1" parent="8mdRNxYV0NPmIafyGJd7-36">
          <mxGeometry y="232.26666666666665" width="452" height="28" as="geometry" />
        </mxCell>
        <mxCell id="8mdRNxYV0NPmIafyGJd7-46" value="-loopBegin()" style="text;strokeColor=none;fillColor=none;align=left;verticalAlign=top;spacingLeft=4;spacingRight=4;overflow=hidden;rotatable=0;points=[[0,0.5],[1,0.5]];portConstraint=eastwest;" vertex="1" parent="8mdRNxYV0NPmIafyGJd7-36">
          <mxGeometry y="260.26666666666665" width="452" height="28" as="geometry" />
        </mxCell>
        <mxCell id="8mdRNxYV0NPmIafyGJd7-47" value="-loopEnd()" style="text;strokeColor=none;fillColor=none;align=left;verticalAlign=top;spacingLeft=4;spacingRight=4;overflow=hidden;rotatable=0;points=[[0,0.5],[1,0.5]];portConstraint=eastwest;" vertex="1" parent="8mdRNxYV0NPmIafyGJd7-36">
          <mxGeometry y="288.26666666666665" width="452" height="28" as="geometry" />
        </mxCell>
        <mxCell id="8mdRNxYV0NPmIafyGJd7-48" value="-isPrintableChar(value: unsigned char) : bool" style="text;strokeColor=none;fillColor=none;align=left;verticalAlign=top;spacingLeft=4;spacingRight=4;overflow=hidden;rotatable=0;points=[[0,0.5],[1,0.5]];portConstraint=eastwest;" vertex="1" parent="8mdRNxYV0NPmIafyGJd7-36">
          <mxGeometry y="316.26666666666665" width="452" height="28" as="geometry" />
        </mxCell>
        <mxCell id="8mdRNxYV0NPmIafyGJd7-49" value="-output()" style="text;strokeColor=none;fillColor=none;align=left;verticalAlign=top;spacingLeft=4;spacingRight=4;overflow=hidden;rotatable=0;points=[[0,0.5],[1,0.5]];portConstraint=eastwest;" vertex="1" parent="8mdRNxYV0NPmIafyGJd7-36">
          <mxGeometry y="344.26666666666665" width="452" height="28" as="geometry" />
        </mxCell>
        <mxCell id="8mdRNxYV0NPmIafyGJd7-50" value="-analyzeProgrammCode(programCode: string) : int" style="text;strokeColor=none;fillColor=none;align=left;verticalAlign=top;spacingLeft=4;spacingRight=4;overflow=hidden;rotatable=0;points=[[0,0.5],[1,0.5]];portConstraint=eastwest;" vertex="1" parent="8mdRNxYV0NPmIafyGJd7-36">
          <mxGeometry y="372.26666666666665" width="452" height="28" as="geometry" />
        </mxCell>
        <mxCell id="8mdRNxYV0NPmIafyGJd7-51" value="-readChar() : unsigned char" style="text;strokeColor=none;fillColor=none;align=left;verticalAlign=top;spacingLeft=4;spacingRight=4;overflow=hidden;rotatable=0;points=[[0,0.5],[1,0.5]];portConstraint=eastwest;" vertex="1" parent="8mdRNxYV0NPmIafyGJd7-36">
          <mxGeometry y="400.26666666666665" width="452" height="28" as="geometry" />
        </mxCell>
        <mxCell id="8mdRNxYV0NPmIafyGJd7-52" value="Band" style="swimlane;fontStyle=1;align=center;verticalAlign=top;childLayout=stackLayout;horizontal=1;startSize=38;horizontalStack=0;resizeParent=1;resizeParentMax=0;resizeLast=0;collapsible=0;marginBottom=0;" vertex="1" parent="1">
          <mxGeometry x="216" y="526" width="61" height="57" as="geometry" />
        </mxCell>
        <mxCell id="8mdRNxYV0NPmIafyGJd7-53" style="line;strokeWidth=1;fillColor=none;align=left;verticalAlign=middle;spacingTop=-1;spacingLeft=3;spacingRight=3;rotatable=0;labelPosition=right;points=[];portConstraint=eastwest;strokeColor=inherit;" vertex="1" parent="8mdRNxYV0NPmIafyGJd7-52">
          <mxGeometry y="38" width="61" height="19" as="geometry" />
        </mxCell>
        <mxCell id="8mdRNxYV0NPmIafyGJd7-54" value="uses" style="curved=1;startArrow=none;endArrow=open;endSize=12;exitX=0.5;exitY=1;entryX=0.49;entryY=0;rounded=0;" edge="1" parent="1" source="8mdRNxYV0NPmIafyGJd7-36" target="8mdRNxYV0NPmIafyGJd7-52">
          <mxGeometry relative="1" as="geometry">
            <Array as="points" />
          </mxGeometry>
        </mxCell>
      </root>
    </mxGraphModel>
  </diagram>
</mxfile>
